<svg width="1378" height="324" viewBox="0 0 1378 324" fill="none" xmlns="http://www.w3.org/2000/svg">
<path d="M384 25.6923L394.024 21.7858C424.9 9.75384 459.683 25.0295 471.715 55.9051L475.622 65.9294L465.597 69.8359C434.722 81.8678 399.938 66.5921 387.906 35.7166L384 25.6923Z" fill="#FF9AF8"/>
<path d="M394 66.1986L396.214 65.3357C427.09 53.3037 461.873 68.5794 473.905 99.455L474.768 101.669L472.554 102.532C441.678 114.564 406.895 99.2884 394.863 68.4129L394 66.1986Z" fill="#FFEEDD"/>
<path d="M406.606 108.989C435.682 97.6583 468.437 112.044 479.768 141.119C450.692 152.45 417.937 138.065 406.606 108.989Z" fill="#D3CBEB"/>
<path d="M1103 184.692L1113.02 180.786C1143.9 168.754 1178.68 184.029 1190.72 214.905L1194.62 224.929L1184.6 228.836C1153.72 240.868 1118.94 225.592 1106.91 194.716L1103 184.692Z" fill="#FF9AF8"/>
<path d="M1113 225.198L1115.21 224.335C1146.09 212.303 1180.87 227.579 1192.91 258.455L1193.77 260.669L1191.55 261.532C1160.68 273.564 1125.89 258.288 1113.86 227.413L1113 225.198Z" fill="#FFEEDD"/>
<path d="M1125.61 267.988C1154.68 256.658 1187.44 271.043 1198.77 300.119C1169.69 311.449 1136.94 297.064 1125.61 267.988Z" fill="#D3CBEB"/>
<path d="M0 251H13C46.1371 251 73 277.863 73 311V324H0V251Z" fill="#D3CBEB"/>
<path d="M1378 73H1365C1331.86 73 1305 46.1371 1305 13V0H1378V73Z" fill="#D3CBEB"/>
<rect x="57.2622" y="215.706" width="59.2352" height="59.2352" rx="4.5" transform="rotate(48.7813 57.2622 215.706)" stroke="black"/>
<rect x="27.5" y="227.5" width="59" height="60" rx="4.5" stroke="black"/>
<path d="M1287.12 70.61L1317.86 17.36L1348.6 70.61H1287.12Z" stroke="black"/>
<path d="M1317.86 88.3599L1287.12 35.1099L1348.6 35.1099L1317.86 88.3599Z" stroke="black"/>
</svg>
