<svg width="1440" height="570" viewBox="0 0 1440 570" fill="none" xmlns="http://www.w3.org/2000/svg">
<path d="M85.5025 459.99C138.065 408.385 160.504 422.878 225.506 332.308C290.507 241.737 270.007 475.895 325.008 422.878C380.009 369.861 415.01 319.054 457.511 303.59C500.012 288.127 497.303 405.894 559.013 437.016C600.99 458.186 633.345 471.092 680.016 459.99C746.177 444.252 746.177 385.197 779.519 332.308C808.222 286.776 804.519 166.63 842.02 210.811C879.521 254.992 954.545 458.453 1039.52 394.161C1073.36 368.566 1070.44 339.147 1089.53 303.59C1113.46 259.016 1111.53 318.612 1149.03 188.721C1186.53 58.8294 1202.28 314.911 1279.03 319.496C1366.98 324.749 1342.85 196.995 1424.03 166.63C1588.21 105.222 1424.03 570 1424.03 570H-20C-20 570 42.8695 501.847 85.5025 459.99Z" fill="#FCF1E9"/>
<path d="M-0.106795 0H1444C1444 0 1444.33 54.4559 1428.5 82.7428C1399.14 135.189 1348.66 135.523 1291.49 138.261C1226.59 141.368 1198.23 88.286 1133.48 82.7428C1065.54 76.9272 1029.61 115.351 961.464 114.238C898.889 113.216 866.289 76.8302 803.952 82.7428C728.469 89.9024 702.306 159.181 626.939 167.621C545.356 176.757 501.237 88.1716 422.924 114.238C350.28 138.418 367.42 223.583 287.414 263.709C207.409 303.836 207.409 167.621 150.904 138.261C94.4001 108.9 132.403 325.099 -0.106795 463.36C-132.617 601.62 -0.106795 0 -0.106795 0Z" fill="#D3CBEB"/>
</svg>
